<svg xmlns="http://www.w3.org/2000/svg" width="1200" height="520" viewBox="0 0 1200 520">
<defs>
<linearGradient id="bg" x1="0" y1="0" x2="1" y2="1">
<stop offset="0%" stop-color="#0d1117"/>
<stop offset="100%" stop-color="#161b22"/>
</linearGradient>
<linearGradient id="accent" x1="0" y1="0" x2="1" y2="0">
<stop offset="0%" stop-color="#00ff99"/>
<stop offset="100%" stop-color="#58a6ff"/>
</linearGradient>
<filter id="shadow"><feDropShadow dx="0" dy="8" stdDeviation="10" flood-color="#000" flood-opacity="0.45"/></filter>
</defs>
<rect width="1200" height="520" fill="#0d1117"/>
<rect x="40" y="40" width="1120" height="440" rx="18" fill="url(#bg)" stroke="#30363d" stroke-width="2" filter="url(#shadow)"/>
<line x1="40" y1="88" x2="1160" y2="88" stroke="#30363d"/>
<circle cx="70" cy="64" r="7" fill="#ff5f57"/><circle cx="95" cy="64" r="7" fill="#febc2e"/><circle cx="120" cy="64" r="7" fill="#28c840"/>
<text x="600" y="69" text-anchor="middle" font-family="Segoe UI,Arial" font-size="18" fill="#8b949e">AARYAN OS</text>
<circle cx="180" cy="205" r="65" fill="none" stroke="url(#accent)" stroke-width="4"/>
<text x="180" y="214" text-anchor="middle" font-family="Segoe UI" font-size="42" fill="#fff">A</text>
<text x="290" y="165" font-family="Segoe UI" font-size="46" font-weight="700" fill="#fff">Aaryan Chipkar</text>
<text x="290" y="205" font-family="Segoe UI" font-size="22" fill="#58a6ff">AI Engineer • Backend Developer • Founder @ Nocaps</text>
<text x="290" y="245" font-family="Segoe UI" font-size="20" fill="#c9d1d9">Building AI-native products that understand people.</text>
<rect x="290" y="285" width="165" height="40" rx="20" fill="#1f6feb"/>
<text x="372" y="311" text-anchor="middle" font-family="Segoe UI" font-size="16" fill="#fff">Portfolio</text>
<rect x="470" y="285" width="165" height="40" rx="20" fill="#21262d" stroke="#30363d"/>
<text x="552" y="311" text-anchor="middle" font-family="Segoe UI" font-size="16" fill="#fff">LinkedIn</text>
<rect x="760" y="145" width="320" height="210" rx="14" fill="#161b22" stroke="#30363d"/>
<text x="790" y="180" font-family="Segoe UI" font-size="18" fill="#8b949e">SYSTEM STATUS</text>
<text x="790" y="220" font-family="Segoe UI" font-size="17" fill="#c9d1d9">● AI Agents</text>
<text x="790" y="250" font-family="Segoe UI" font-size="17" fill="#c9d1d9">● Spring Boot APIs</text>
<text x="790" y="280" font-family="Segoe UI" font-size="17" fill="#c9d1d9">● React Native</text>
<text x="790" y="310" font-family="Segoe UI" font-size="17" fill="#c9d1d9">● PostgreSQL + Firebase</text>
<text x="790" y="340" font-family="Segoe UI" font-size="17" fill="#00ff99">STATUS : ONLINE</text>
<line x1="120" y1="395" x2="1080" y2="395" stroke="#30363d"/>
<text x="600" y="435" text-anchor="middle" font-family="Segoe UI" font-size="18" fill="#8b949e">AI • Backend • Mobile • Startup</text>
</svg>